<svg width="300" height="294" viewBox="0 0 300 294" fill="none" xmlns="http://www.w3.org/2000/svg">
<path d="M50 60C50 -20 250 -20 250 60C250 20 300 80 300 130C300 180 250 220 200 230C150 240 100 240 50 230C0 220 0 180 0 130C0 80 50 20 50 60Z" fill="#2D2D2D"/>
<path d="M150 214C199.706 214 240 169.228 240 114C240 58.7715 199.706 14 150 14C100.294 14 60 58.7715 60 114C60 169.228 100.294 214 150 214Z" fill="#B87A64"/>
<path d="M110 104C118.284 104 125 99.5228 125 94C125 88.4772 118.284 84 110 84C101.716 84 95 88.4772 95 94C95 99.5228 101.716 104 110 104Z" fill="#2D2D2D"/>
<path d="M190 104C198.284 104 205 99.5228 205 94C205 88.4772 198.284 84 190 84C181.716 84 175 88.4772 175 94C175 99.5228 181.716 104 190 104Z" fill="#2D2D2D"/>
<path d="M140 114C146.667 120.667 153.333 120.667 160 114" stroke="#2D2D2D" stroke-width="3"/>
<path d="M120 144C140 157.333 160 157.333 180 144" stroke="#2D2D2D" stroke-width="3"/>
<path d="M70 214H230L250 294H50L70 214Z" fill="#4169E1"/>
</svg>
